<?xml version="1.0" encoding="UTF-8"?>
<svg xmlns="http://www.w3.org/2000/svg" viewBox="0 0 560 460" width="560" height="460" role="img" aria-label="Apt.Bed Twin / Twin Long Low in Walnut">
  <!-- constant scene -->
  <rect width="560" height="460" fill="#F7F2EA"/>
  <rect x="0" y="0" width="560" height="380" fill="#EFE7DA"/>
  <rect x="0" y="380" width="560" height="80" fill="#E4D8C6"/>
  <ellipse cx="280" cy="392" rx="154" ry="14" fill="#000000" opacity="0.06"/>
  <!-- wall art -->
  <rect x="52" y="70" width="60" height="78" rx="4" fill="#FFFFFF" stroke="#1E3A5F" stroke-opacity="0.12"/>
  <path d="M60 130 L78 104 L92 122 L104 96 L104 140 L60 140 Z" fill="#6E9CC4" opacity="0.35"/>
  <!-- potted plant -->
  <g transform="translate(490, 302)">
    <path d="M20 78 C6 60 6 40 16 24" fill="none" stroke="#8FA98C" stroke-width="4" stroke-linecap="round"/>
    <path d="M20 78 C34 58 36 40 30 22" fill="none" stroke="#8FA98C" stroke-width="4" stroke-linecap="round"/>
    <path d="M20 78 C20 56 22 40 23 26" fill="none" stroke="#8FA98C" stroke-width="4" stroke-linecap="round"/>
    <ellipse cx="16" cy="24" rx="7" ry="12" fill="#8FA98C"/>
    <ellipse cx="30" cy="22" rx="7" ry="12" fill="#8FA98C"/>
    <ellipse cx="23" cy="16" rx="6" ry="11" fill="#8FA98C"/>
    <path d="M8 78 L32 78 L29 98 L11 98 Z" fill="#C98B6B"/>
  </g>

  <!-- vertical posts (wood) -->
  <rect x="160" y="184" width="14" height="196" fill="#33241A"/>
  <rect x="386" y="184" width="14" height="196" fill="#33241A"/>

  <!-- storage bay backer (wood) -->
  <rect x="170" y="230" width="220" height="150" fill="#7C5B40"/>

  <!-- closet (wood) -->
  <rect x="170" y="230" width="70.4" height="150" fill="#6E4E38" stroke="#22160E" stroke-opacity="0.25"/>
  <line x1="205.2" y1="238" x2="205.2" y2="372" stroke="#22160E" stroke-opacity="0.2"/>
  <line x1="182" y1="250" x2="228.4" y2="250" stroke="#33241A" stroke-width="3"/>
  <rect x="190" y="252" width="10" height="75" rx="4" fill="#4E3626"/>
  <rect x="210.4" y="252" width="10" height="60" rx="4" fill="#5B4130"/>

  <!-- desk (wood) -->
  <rect x="240.4" y="230" width="88" height="150" fill="#7C5B40" stroke="#22160E" stroke-opacity="0.2"/>
  <rect x="248.4" y="293" width="72" height="12" fill="#4E3626"/>
  <rect x="262.4" y="305" width="8" height="60" fill="#33241A"/>
  <rect x="298.4" y="305" width="8" height="60" fill="#33241A"/>
  <circle cx="284.4" cy="266" r="10" fill="#6E9CC4" opacity="0.65"/>

  <!-- chest of drawers (wood) -->
  <rect x="328.4" y="230" width="61.599999999999994" height="150" fill="#6E4E38" stroke="#22160E" stroke-opacity="0.25"/>
  <rect x="334.4" y="234" width="49.599999999999994" height="29.5" rx="4" fill="#7C5B40" stroke="#22160E" stroke-opacity="0.2"/><circle cx="359.2" cy="248.75" r="4" fill="#33241A"/>
  <rect x="334.4" y="271.5" width="49.599999999999994" height="29.5" rx="4" fill="#7C5B40" stroke="#22160E" stroke-opacity="0.2"/><circle cx="359.2" cy="286.25" r="4" fill="#33241A"/>
  <rect x="334.4" y="309" width="49.599999999999994" height="29.5" rx="4" fill="#7C5B40" stroke="#22160E" stroke-opacity="0.2"/><circle cx="359.2" cy="323.75" r="4" fill="#33241A"/>
  <rect x="334.4" y="346.5" width="49.599999999999994" height="29.5" rx="4" fill="#7C5B40" stroke="#22160E" stroke-opacity="0.2"/><circle cx="359.2" cy="361.25" r="4" fill="#33241A"/>

  <!-- bed platform base (wood) -->
  <rect x="154" y="218" width="252" height="12" fill="#33241A"/>
  <!-- mattress (constant) -->
  <rect x="164" y="184" width="232" height="34" rx="8" fill="#FFFFFF" stroke="#22160E" stroke-opacity="0.12"/>
  <rect x="164" y="206" width="232" height="12" rx="6" fill="#6E9CC4" opacity="0.55"/>
  <!-- pillow (constant accent) -->
  <rect x="176" y="190" width="60" height="20" rx="8" fill="#D25A48" opacity="0.9"/>
  <!-- guard rail (wood) -->
  <line x1="380" y1="164" x2="380" y2="184" stroke="#33241A" stroke-width="5" stroke-linecap="round"/>
  <line x1="330" y1="164" x2="330" y2="184" stroke="#33241A" stroke-width="5" stroke-linecap="round"/>
  <line x1="330" y1="164" x2="380" y2="164" stroke="#33241A" stroke-width="5" stroke-linecap="round"/>

  <!-- ladder (wood) -->
  <line x1="174" y1="184" x2="174" y2="380" stroke="#4E3626" stroke-width="6"/>
  <line x1="200" y1="184" x2="200" y2="380" stroke="#4E3626" stroke-width="6"/>
  <line x1="174" y1="223.2" x2="200" y2="223.2" stroke="#33241A" stroke-width="5" stroke-linecap="round"/>
  <line x1="174" y1="266.32" x2="200" y2="266.32" stroke="#33241A" stroke-width="5" stroke-linecap="round"/>
  <line x1="174" y1="309.44" x2="200" y2="309.44" stroke="#33241A" stroke-width="5" stroke-linecap="round"/>
  <line x1="174" y1="352.56" x2="200" y2="352.56" stroke="#33241A" stroke-width="5" stroke-linecap="round"/>
</svg>
