<?xml version="1.0" encoding="UTF-8"?>
<svg xmlns="http://www.w3.org/2000/svg" viewBox="0 0 560 460" width="560" height="460" role="img" aria-label="Apt.Bed Twin / Twin Long Medium in Walnut">
  <!-- constant scene -->
  <rect width="560" height="460" fill="#F7F2EA"/>
  <rect x="0" y="0" width="560" height="380" fill="#EFE7DA"/>
  <rect x="0" y="380" width="560" height="80" fill="#E4D8C6"/>
  <ellipse cx="280" cy="392" rx="154" ry="14" fill="#000000" opacity="0.06"/>
  <!-- wall art -->
  <rect x="52" y="70" width="60" height="78" rx="4" fill="#FFFFFF" stroke="#1E3A5F" stroke-opacity="0.12"/>
  <path d="M60 130 L78 104 L92 122 L104 96 L104 140 L60 140 Z" fill="#6E9CC4" opacity="0.35"/>
  <!-- potted plant -->
  <g transform="translate(490, 302)">
    <path d="M20 78 C6 60 6 40 16 24" fill="none" stroke="#8FA98C" stroke-width="4" stroke-linecap="round"/>
    <path d="M20 78 C34 58 36 40 30 22" fill="none" stroke="#8FA98C" stroke-width="4" stroke-linecap="round"/>
    <path d="M20 78 C20 56 22 40 23 26" fill="none" stroke="#8FA98C" stroke-width="4" stroke-linecap="round"/>
    <ellipse cx="16" cy="24" rx="7" ry="12" fill="#8FA98C"/>
    <ellipse cx="30" cy="22" rx="7" ry="12" fill="#8FA98C"/>
    <ellipse cx="23" cy="16" rx="6" ry="11" fill="#8FA98C"/>
    <path d="M8 78 L32 78 L29 98 L11 98 Z" fill="#C98B6B"/>
  </g>

  <!-- vertical posts (wood) -->
  <rect x="160" y="129" width="14" height="251" fill="#33241A"/>
  <rect x="386" y="129" width="14" height="251" fill="#33241A"/>

  <!-- storage bay backer (wood) -->
  <rect x="170" y="175" width="220" height="205" fill="#7C5B40"/>

  <!-- closet (wood) -->
  <rect x="170" y="175" width="70.4" height="205" fill="#6E4E38" stroke="#22160E" stroke-opacity="0.25"/>
  <line x1="205.2" y1="183" x2="205.2" y2="372" stroke="#22160E" stroke-opacity="0.2"/>
  <line x1="182" y1="195" x2="228.4" y2="195" stroke="#33241A" stroke-width="3"/>
  <rect x="190" y="197" width="10" height="102.5" rx="4" fill="#4E3626"/>
  <rect x="210.4" y="197" width="10" height="82" rx="4" fill="#5B4130"/>

  <!-- desk (wood) -->
  <rect x="240.4" y="175" width="88" height="205" fill="#7C5B40" stroke="#22160E" stroke-opacity="0.2"/>
  <rect x="248.4" y="261.1" width="72" height="12" fill="#4E3626"/>
  <rect x="262.4" y="273.1" width="8" height="82" fill="#33241A"/>
  <rect x="298.4" y="273.1" width="8" height="82" fill="#33241A"/>
  <circle cx="284.4" cy="224.2" r="10" fill="#6E9CC4" opacity="0.65"/>

  <!-- chest of drawers (wood) -->
  <rect x="328.4" y="175" width="61.599999999999994" height="205" fill="#6E4E38" stroke="#22160E" stroke-opacity="0.25"/>
  <rect x="334.4" y="179" width="49.599999999999994" height="43.25" rx="4" fill="#7C5B40" stroke="#22160E" stroke-opacity="0.2"/><circle cx="359.2" cy="200.625" r="4" fill="#33241A"/>
  <rect x="334.4" y="230.25" width="49.599999999999994" height="43.25" rx="4" fill="#7C5B40" stroke="#22160E" stroke-opacity="0.2"/><circle cx="359.2" cy="251.875" r="4" fill="#33241A"/>
  <rect x="334.4" y="281.5" width="49.599999999999994" height="43.25" rx="4" fill="#7C5B40" stroke="#22160E" stroke-opacity="0.2"/><circle cx="359.2" cy="303.125" r="4" fill="#33241A"/>
  <rect x="334.4" y="332.75" width="49.599999999999994" height="43.25" rx="4" fill="#7C5B40" stroke="#22160E" stroke-opacity="0.2"/><circle cx="359.2" cy="354.375" r="4" fill="#33241A"/>

  <!-- bed platform base (wood) -->
  <rect x="154" y="163" width="252" height="12" fill="#33241A"/>
  <!-- mattress (constant) -->
  <rect x="164" y="129" width="232" height="34" rx="8" fill="#FFFFFF" stroke="#22160E" stroke-opacity="0.12"/>
  <rect x="164" y="151" width="232" height="12" rx="6" fill="#6E9CC4" opacity="0.55"/>
  <!-- pillow (constant accent) -->
  <rect x="176" y="135" width="60" height="20" rx="8" fill="#D25A48" opacity="0.9"/>
  <!-- guard rail (wood) -->
  <line x1="380" y1="109" x2="380" y2="129" stroke="#33241A" stroke-width="5" stroke-linecap="round"/>
  <line x1="330" y1="109" x2="330" y2="129" stroke="#33241A" stroke-width="5" stroke-linecap="round"/>
  <line x1="330" y1="109" x2="380" y2="109" stroke="#33241A" stroke-width="5" stroke-linecap="round"/>

  <!-- ladder (wood) -->
  <line x1="174" y1="129" x2="174" y2="380" stroke="#4E3626" stroke-width="6"/>
  <line x1="200" y1="129" x2="200" y2="380" stroke="#4E3626" stroke-width="6"/>
  <line x1="174" y1="179.2" x2="200" y2="179.2" stroke="#33241A" stroke-width="5" stroke-linecap="round"/>
  <line x1="174" y1="234.42000000000002" x2="200" y2="234.42000000000002" stroke="#33241A" stroke-width="5" stroke-linecap="round"/>
  <line x1="174" y1="289.64" x2="200" y2="289.64" stroke="#33241A" stroke-width="5" stroke-linecap="round"/>
  <line x1="174" y1="344.86" x2="200" y2="344.86" stroke="#33241A" stroke-width="5" stroke-linecap="round"/>
</svg>
